<svg width="64" height="64" viewBox="0 0 64 64" fill="none" xmlns="http://www.w3.org/2000/svg">
<path d="M38.9999 26V40H41.9999V38C41.9999 38 52.9999 37 55.9999 35V40H58.9999V36C58.9999 33.3478 57.9464 30.8043 56.071 28.9289C54.1956 27.0536 51.6521 26 48.9999 26H38.9999Z" fill="#80A6FF"/>
<path d="M7.99994 13.5C7.99984 13.1717 8.06444 12.8465 8.19004 12.5432C8.31564 12.2398 8.49979 11.9642 8.73195 11.732C8.96412 11.4998 9.23976 11.3157 9.54311 11.1901C9.84647 11.0645 10.1716 10.9999 10.4999 11H19.4999C19.8283 10.9999 20.1534 11.0645 20.4568 11.1901C20.7601 11.3157 21.0358 11.4998 21.2679 11.732C21.5001 11.9642 21.6842 12.2398 21.8098 12.5432C21.9354 12.8465 22 13.1717 21.9999 13.5V16H24.9999V12C24.9999 9.34784 23.9464 6.8043 22.071 4.92893C20.1956 3.05357 17.6521 2 14.9999 2C12.3478 2 9.80423 3.05357 7.92887 4.92893C6.05351 6.8043 4.99994 9.34784 4.99994 12V16H7.99994V13.5Z" fill="#80A6FF"/>
<path d="M58.8574 55.9925L51.9999 54H51.8274C51.6208 54.5848 51.238 55.0912 50.7316 55.4494C50.2252 55.8075 49.6202 55.9999 48.9999 55.9999C48.3797 55.9999 47.7747 55.8075 47.2683 55.4494C46.7619 55.0912 46.379 54.5848 46.1724 54H45.9999L39.1424 55.9925C38.2149 56.364 37.4198 57.0047 36.8598 57.8322C36.2997 58.6596 36.0002 59.6358 35.9999 60.635V62H61.9999V60.635C61.9997 59.6358 61.7002 58.6596 61.1401 57.8322C60.58 57.0047 59.785 56.364 58.8574 55.9925Z" fill="#80A6FF"/>
<path d="M24.8574 31.9925L17.9999 30H17.8274C17.6208 30.5848 17.238 31.0912 16.7316 31.4494C16.2252 31.8075 15.6202 31.9999 14.9999 31.9999C14.3797 31.9999 13.7747 31.8075 13.2683 31.4494C12.7619 31.0912 12.379 30.5848 12.1724 30H11.9999L5.14244 31.9925C4.21489 32.364 3.41984 33.0047 2.85975 33.8322C2.29966 34.6596 2.00019 35.6358 1.99994 36.635V38H27.9999V36.635C27.9997 35.6358 27.7002 34.6596 27.1401 33.8322C26.58 33.0047 25.785 32.364 24.8574 31.9925Z" fill="#80A6FF"/>
<path d="M41.9999 19C45.8659 19 48.9999 15.866 48.9999 12C48.9999 8.13401 45.8659 5 41.9999 5C38.1339 5 34.9999 8.13401 34.9999 12C34.9999 15.866 38.1339 19 41.9999 19Z" fill="#80A6FF"/>
<path d="M47 41C47 40.7348 46.8946 40.4804 46.7071 40.2929C46.5196 40.1054 46.2652 40 46 40C45.7348 40 45.4804 40.1054 45.2929 40.2929C45.1054 40.4804 45 40.7348 45 41V42C45 42.2652 45.1054 42.5196 45.2929 42.7071C45.4804 42.8946 45.7348 43 46 43C46.2652 43 46.5196 42.8946 46.7071 42.7071C46.8946 42.5196 47 42.2652 47 42V41Z" fill="#263357"/>
<path d="M52 43C52.2652 43 52.5196 42.8946 52.7071 42.7071C52.8946 42.5196 53 42.2652 53 42V41C53 40.7348 52.8946 40.4804 52.7071 40.2929C52.5196 40.1054 52.2652 40 52 40C51.7348 40 51.4804 40.1054 51.2929 40.2929C51.1054 40.4804 51 40.7348 51 41V42C51 42.2652 51.1054 42.5196 51.2929 42.7071C51.4804 42.8946 51.7348 43 52 43Z" fill="#263357"/>
<path d="M59.2287 55.0638C59.1975 55.0525 59.1675 55.0413 59.1362 55.0325L52.9912 53.2463C52.9962 53.165 53 53.0825 53 53V51.6763C54.0255 51.3391 54.937 50.723 55.6322 49.8971C56.3274 49.0712 56.7789 48.068 56.9362 47H57.5C58.4279 46.999 59.3176 46.6299 59.9737 45.9737C60.6299 45.3176 60.9989 44.4279 61 43.5V42.5C61.0002 42.034 60.9071 41.5727 60.7262 41.1433C60.5452 40.7139 60.28 40.3252 59.9462 40H60V36C59.9967 33.0836 58.8367 30.2877 56.7745 28.2255C54.7123 26.1633 51.9163 25.0033 49 25H39C38.7348 25 38.4804 25.1054 38.2929 25.2929C38.1053 25.4804 38 25.7348 38 26V40H38.0537C37.72 40.3252 37.4548 40.7139 37.2738 41.1433C37.0928 41.5727 36.9997 42.034 37 42.5V43.5C37.001 44.4279 37.3701 45.3176 38.0262 45.9737C38.6824 46.6299 39.572 46.999 40.5 47H41.0637C41.221 48.068 41.6726 49.0712 42.3678 49.8971C43.063 50.723 43.9744 51.3391 45 51.6763V53C45 53.0825 45.0037 53.165 45.0087 53.2463L38.8637 55.0325C38.8325 55.0413 38.8025 55.0525 38.7712 55.0638C37.6557 55.506 36.6992 56.2741 36.0266 57.2679C35.3539 58.2616 34.9961 59.435 35 60.635V62C35 62.2652 35.1053 62.5196 35.2929 62.7071C35.4804 62.8946 35.7348 63 36 63H62C62.2652 63 62.5195 62.8946 62.7071 62.7071C62.8946 62.5196 63 62.2652 63 62V60.635C63.0038 59.435 62.6461 58.2616 61.9734 57.2679C61.3007 56.2741 60.3443 55.506 59.2287 55.0638ZM59 42.5V43.5C58.9996 43.8977 58.8415 44.2791 58.5603 44.5603C58.279 44.8415 57.8977 44.9997 57.5 45H57V41H57.5C57.8977 41.0003 58.279 41.1585 58.5603 41.4397C58.8415 41.7209 58.9996 42.1023 59 42.5ZM41 45H40.5C40.1022 44.9997 39.7209 44.8415 39.4397 44.5603C39.1584 44.2791 39.0003 43.8977 39 43.5V42.5C39.0003 42.1023 39.1584 41.7209 39.4397 41.4397C39.7209 41.1585 40.1022 41.0003 40.5 41H41V45ZM41.91 37.0037C41.6614 37.0265 41.4303 37.1412 41.2619 37.3255C41.0936 37.5098 41.0001 37.7504 41 38V39H40.5C40.3326 39 40.1655 39.0121 40 39.0363V27H49C51.3861 27.0027 53.6737 27.9518 55.3609 29.6391C57.0481 31.3263 57.9972 33.6139 58 36V39.0363C57.8344 39.0121 57.6673 39 57.5 39H57V35C56.9997 34.8191 56.9504 34.6416 56.8573 34.4864C56.7643 34.3313 56.6309 34.2042 56.4714 34.1189C56.3119 34.0335 56.1322 33.9929 55.9514 34.0014C55.7707 34.01 55.5957 34.0674 55.445 34.1675C53.1587 35.6925 44.8987 36.7325 41.91 37.0037ZM43 46.125V38.9062C45.4137 38.655 51.5475 37.9137 55 36.5938V46.125C55 48.2975 53.2425 50 51 50H47C44.7575 50 43 48.2975 43 46.125ZM51 52V53C51 53.5304 50.7893 54.0391 50.4142 54.4142C50.0391 54.7893 49.5304 55 49 55C48.4695 55 47.9608 54.7893 47.5858 54.4142C47.2107 54.0391 47 53.5304 47 53V52H51ZM61 61H37V60.635C36.9974 59.8429 37.2312 59.0681 37.6714 58.4097C38.1117 57.7512 38.7383 57.2391 39.4712 56.9388L45.6287 55.1488C45.9895 55.7161 46.4876 56.1831 47.0769 56.5067C47.6662 56.8303 48.3277 57 49 57C49.6723 57 50.3337 56.8303 50.923 56.5067C51.5123 56.1831 52.0104 55.7161 52.3712 55.1488L58.5287 56.9388C59.2616 57.2391 59.8883 57.7512 60.3285 58.4097C60.7687 59.0681 61.0025 59.8429 61 60.635V61Z" fill="#263357"/>
<path d="M48 48H50C50.2652 48 50.5196 47.8946 50.7071 47.7071C50.8946 47.5196 51 47.2652 51 47C51 46.7348 50.8946 46.4804 50.7071 46.2929C50.5196 46.1054 50.2652 46 50 46H48C47.7348 46 47.4804 46.1054 47.2929 46.2929C47.1054 46.4804 47 46.7348 47 47C47 47.2652 47.1054 47.5196 47.2929 47.7071C47.4804 47.8946 47.7348 48 48 48Z" fill="#263357"/>
<path d="M13 18V17C13 16.7348 12.8946 16.4804 12.7071 16.2929C12.5196 16.1054 12.2652 16 12 16C11.7348 16 11.4804 16.1054 11.2929 16.2929C11.1054 16.4804 11 16.7348 11 17V18C11 18.2652 11.1054 18.5196 11.2929 18.7071C11.4804 18.8946 11.7348 19 12 19C12.2652 19 12.5196 18.8946 12.7071 18.7071C12.8946 18.5196 13 18.2652 13 18Z" fill="#263357"/>
<path d="M18 19C18.2652 19 18.5196 18.8946 18.7071 18.7071C18.8946 18.5196 19 18.2652 19 18V17C19 16.7348 18.8946 16.4804 18.7071 16.2929C18.5196 16.1054 18.2652 16 18 16C17.7348 16 17.4804 16.1054 17.2929 16.2929C17.1054 16.4804 17 16.7348 17 17V18C17 18.2652 17.1054 18.5196 17.2929 18.7071C17.4804 18.8946 17.7348 19 18 19Z" fill="#263357"/>
<path d="M25.2287 31.0637C25.1975 31.0525 25.1675 31.0413 25.1362 31.0325L18.9912 29.2463C18.9962 29.165 19 29.0825 19 29V27.6763C20.0255 27.3391 20.937 26.723 21.6322 25.8971C22.3274 25.0712 22.7789 24.068 22.9362 23H23.5C24.4279 22.999 25.3176 22.6299 25.9737 21.9737C26.6299 21.3176 26.9989 20.4279 27 19.5V18.5C27.0007 17.5837 26.6406 16.704 25.9975 16.0513C25.9987 16.0338 26 16.0175 26 16V12C26 9.08262 24.841 6.28473 22.7781 4.22183C20.7152 2.15893 17.9174 1 15 1C12.0826 1 9.28469 2.15893 7.2218 4.22183C5.1589 6.28473 3.99997 9.08262 3.99997 12V16C3.99997 16.0175 4.00122 16.0338 4.00247 16.0513C3.35938 16.704 2.99922 17.5837 2.99997 18.5V19.5C3.001 20.4279 3.37007 21.3176 4.02623 21.9737C4.68238 22.6299 5.57203 22.999 6.49997 23H7.06372C7.22101 24.068 7.67255 25.0712 8.36777 25.8971C9.06298 26.723 9.97441 27.3391 11 27.6763V29C11 29.0825 11.0037 29.165 11.0087 29.2463L4.86372 31.0325C4.83247 31.0413 4.80247 31.0525 4.77122 31.0637C3.65568 31.506 2.69924 32.2741 2.02655 33.2679C1.35387 34.2616 0.996131 35.435 0.99997 36.635V38C0.99997 38.2652 1.10533 38.5196 1.29286 38.7071C1.4804 38.8946 1.73475 39 1.99997 39H28C28.2652 39 28.5195 38.8946 28.7071 38.7071C28.8946 38.5196 29 38.2652 29 38V36.635C29.0038 35.435 28.6461 34.2616 27.9734 33.2679C27.3007 32.2741 26.3443 31.506 25.2287 31.0637ZM25 18.5V19.5C24.9996 19.8977 24.8415 20.2791 24.5603 20.5603C24.279 20.8415 23.8977 20.9997 23.5 21H23V17H23.5C23.8977 17.0003 24.279 17.1585 24.5603 17.4397C24.8415 17.7209 24.9996 18.1023 25 18.5ZM6.99997 21H6.49997C6.10225 20.9997 5.72091 20.8415 5.43967 20.5603C5.15844 20.2791 5.0003 19.8977 4.99997 19.5V18.5C5.0003 18.1023 5.15844 17.7209 5.43967 17.4397C5.72091 17.1585 6.10225 17.0003 6.49997 17H6.99997V21ZM6.99997 13.5V15H5.99997V12C5.99997 9.61305 6.94818 7.32387 8.63601 5.63604C10.3238 3.94821 12.613 3 15 3C17.3869 3 19.6761 3.94821 21.3639 5.63604C23.0518 7.32387 24 9.61305 24 12V15H23V13.5C22.9989 12.5721 22.6299 11.6824 21.9737 11.0263C21.3176 10.3701 20.4279 10.001 19.5 10H10.5C9.57203 10.001 8.68238 10.3701 8.02623 11.0263C7.37007 11.6824 7.001 12.5721 6.99997 13.5ZM8.99997 22.125V13.5C9.0003 13.1023 9.15844 12.7209 9.43968 12.4397C9.72091 12.1585 10.1022 12.0003 10.5 12H19.5C19.8977 12.0003 20.279 12.1585 20.5603 12.4397C20.8415 12.7209 20.9996 13.1023 21 13.5V22.125C21 24.2975 19.2425 26 17 26H13C10.7575 26 8.99997 24.2975 8.99997 22.125ZM17 28V29C17 29.5304 16.7893 30.0391 16.4142 30.4142C16.0391 30.7893 15.5304 31 15 31C14.4695 31 13.9608 30.7893 13.5858 30.4142C13.2107 30.0391 13 29.5304 13 29V28H17ZM27 37H2.99997V36.635C2.99741 35.8429 3.23119 35.0681 3.67142 34.4097C4.11165 33.7512 4.73831 33.2391 5.47122 32.9388L11.6287 31.1488C11.9895 31.7161 12.4876 32.1831 13.0769 32.5067C13.6662 32.8303 14.3277 33 15 33C15.6723 33 16.3337 32.8303 16.923 32.5067C17.5123 32.1831 18.0104 31.7161 18.3712 31.1488L24.5287 32.9388C25.2616 33.2391 25.8883 33.7512 26.3285 34.4097C26.7687 35.0681 27.0025 35.8429 27 36.635V37Z" fill="#263357"/>
<path d="M13.7071 22.2956C14.6495 23.2382 15.3505 23.2382 16.2928 22.2956C16.4804 22.108 16.7347 22.0027 17 22.0027C17.2652 22.0027 17.5195 22.108 17.7071 22.2956C17.8946 22.4831 18 22.7375 18 23.0027C18 23.2679 17.8946 23.5223 17.7071 23.7098C15.9867 25.4301 14.0132 25.4301 12.2928 23.7098C12.1053 23.5223 11.9999 23.2679 11.9999 23.0027C11.9999 22.7375 12.1053 22.4831 12.2928 22.2956C12.4804 22.108 12.7347 22.0027 13 22.0027C13.2652 22.0027 13.5195 22.108 13.7071 22.2956Z" fill="#263357"/>
<path d="M34.9999 41C34.9999 40.7348 34.8946 40.4804 34.707 40.2929C34.5195 40.1054 34.2652 40 33.9999 40H3.99994C3.73472 40 3.48037 40.1054 3.29283 40.2929C3.1053 40.4804 2.99994 40.7348 2.99994 41V55C2.99994 55.2652 3.1053 55.5196 3.29283 55.7071C3.48037 55.8946 3.73472 56 3.99994 56H26.5858L30.2928 59.7071C30.4327 59.847 30.6109 59.9422 30.8048 59.9808C30.9988 60.0194 31.1999 59.9996 31.3826 59.9239C31.5654 59.8482 31.7215 59.72 31.8314 59.5556C31.9413 59.3911 31.9999 59.1978 31.9999 59V56H33.9999C34.2652 56 34.5195 55.8946 34.707 55.7071C34.8946 55.5196 34.9999 55.2652 34.9999 55V41ZM32.9999 54H30.9999C30.7347 54 30.4804 54.1053 30.2928 54.2929C30.1053 54.4804 29.9999 54.7348 29.9999 55V56.5859L27.7071 54.2929C27.6142 54.2 27.504 54.1263 27.3826 54.0761C27.2613 54.0258 27.1313 54 26.9999 54H4.99994V42H32.9999V54Z" fill="#263357"/>
<path d="M8.99994 46H28.9999C29.2652 46 29.5195 45.8946 29.707 45.7071C29.8946 45.5196 29.9999 45.2652 29.9999 45C29.9999 44.7348 29.8946 44.4804 29.707 44.2929C29.5195 44.1054 29.2652 44 28.9999 44H8.99994C8.73472 44 8.48037 44.1054 8.29283 44.2929C8.1053 44.4804 7.99994 44.7348 7.99994 45C7.99994 45.2652 8.1053 45.5196 8.29283 45.7071C8.48037 45.8946 8.73472 46 8.99994 46Z" fill="#263357"/>
<path d="M8.99994 49H28.9999C29.2652 49 29.5195 48.8946 29.707 48.7071C29.8946 48.5196 29.9999 48.2652 29.9999 48C29.9999 47.7348 29.8946 47.4804 29.707 47.2929C29.5195 47.1054 29.2652 47 28.9999 47H8.99994C8.73472 47 8.48037 47.1054 8.29283 47.2929C8.1053 47.4804 7.99994 47.7348 7.99994 48C7.99994 48.2652 8.1053 48.5196 8.29283 48.7071C8.48037 48.8946 8.73472 49 8.99994 49Z" fill="#263357"/>
<path d="M29 50H19C18.7348 50 18.4804 50.1054 18.2929 50.2929C18.1054 50.4804 18 50.7348 18 51C18 51.2652 18.1054 51.5196 18.2929 51.7071C18.4804 51.8946 18.7348 52 19 52H29C29.2652 52 29.5196 51.8946 29.7071 51.7071C29.8946 51.5196 30 51.2652 30 51C30 50.7348 29.8946 50.4804 29.7071 50.2929C29.5196 50.1054 29.2652 50 29 50Z" fill="#263357"/>
<path d="M39 11H40C40.2652 11 40.5196 10.8946 40.7071 10.7071C40.8946 10.5196 41 10.2652 41 10C41 9.73478 40.8946 9.48043 40.7071 9.29289C40.5196 9.10536 40.2652 9 40 9H39C38.7348 9 38.4804 9.10536 38.2929 9.29289C38.1054 9.48043 38 9.73478 38 10C38 10.2652 38.1054 10.5196 38.2929 10.7071C38.4804 10.8946 38.7348 11 39 11Z" fill="#263357"/>
<path d="M44 11H45C45.2652 11 45.5196 10.8946 45.7071 10.7071C45.8946 10.5196 46 10.2652 46 10C46 9.73478 45.8946 9.48043 45.7071 9.29289C45.5196 9.10536 45.2652 9 45 9H44C43.7348 9 43.4804 9.10536 43.2929 9.29289C43.1054 9.48043 43 9.73478 43 10C43 10.2652 43.1054 10.5196 43.2929 10.7071C43.4804 10.8946 43.7348 11 44 11Z" fill="#263357"/>
<path d="M44.707 13.2956C44.6142 13.2027 44.5039 13.129 44.3826 13.0788C44.2613 13.0285 44.1312 13.0027 43.9999 13.0027C43.8686 13.0027 43.7385 13.0285 43.6172 13.0788C43.4959 13.129 43.3856 13.2027 43.2928 13.2956C42.3504 14.2382 41.6494 14.2382 40.707 13.2956C40.5195 13.108 40.2651 13.0027 39.9999 13.0027C39.7347 13.0027 39.4803 13.108 39.2928 13.2956C39.1052 13.4831 38.9999 13.7375 38.9999 14.0027C38.9999 14.2679 39.1052 14.5223 39.2928 14.7098C41.0131 16.4301 42.9867 16.4301 44.707 14.7098C44.7999 14.617 44.8736 14.5067 44.9238 14.3854C44.9741 14.2641 44.9999 14.134 44.9999 14.0027C44.9999 13.8714 44.9741 13.7413 44.9238 13.62C44.8736 13.4987 44.7999 13.3884 44.707 13.2956Z" fill="#263357"/>
<path d="M54 1H30C29.7348 1 29.4804 1.10536 29.2929 1.29289C29.1054 1.48043 29 1.73478 29 2V22C29 22.2652 29.1054 22.5196 29.2929 22.7071C29.4804 22.8946 29.7348 23 30 23H31V26C30.9998 26.1979 31.0584 26.3914 31.1683 26.556C31.2782 26.7206 31.4344 26.8489 31.6172 26.9246C31.8 27.0004 32.0012 27.0202 32.1953 26.9815C32.3894 26.9429 32.5676 26.8475 32.7075 26.7075L36.4137 23H54C54.2652 23 54.5196 22.8946 54.7071 22.7071C54.8946 22.5196 55 22.2652 55 22V2C55 1.73478 54.8946 1.48043 54.7071 1.29289C54.5196 1.10536 54.2652 1 54 1ZM53 21H36C35.7347 20.9999 35.4803 21.1051 35.2925 21.2925L33 23.5863V22C33 21.7348 32.8946 21.4804 32.7071 21.2929C32.5196 21.1054 32.2652 21 32 21H31V3H53V21Z" fill="#263357"/>
<path d="M41.9999 4C40.4177 4 38.871 4.46919 37.5554 5.34824C36.2398 6.22729 35.2144 7.47672 34.6089 8.93853C34.0034 10.4003 33.845 12.0089 34.1537 13.5607C34.4623 15.1126 35.2243 16.538 36.3431 17.6569C37.4619 18.7757 38.8874 19.5376 40.4392 19.8463C41.9911 20.155 43.5996 19.9965 45.0614 19.391C46.5232 18.7855 47.7726 17.7602 48.6517 16.4446C49.5308 15.129 49.9999 13.5823 49.9999 12C49.9976 9.879 49.1539 7.84555 47.6542 6.34578C46.1544 4.846 44.1209 4.00238 41.9999 4ZM41.9999 18C40.8133 18 39.6532 17.6481 38.6665 16.9888C37.6798 16.3295 36.9108 15.3925 36.4567 14.2961C36.0025 13.1997 35.8837 11.9933 36.1152 10.8295C36.3467 9.66557 36.9182 8.59647 37.7573 7.75736C38.5964 6.91824 39.6655 6.3468 40.8294 6.11529C41.9933 5.88378 43.1997 6.0026 44.296 6.45672C45.3924 6.91085 46.3295 7.67988 46.9888 8.66658C47.6481 9.65327 47.9999 10.8133 47.9999 12C47.9983 13.5908 47.3656 15.1159 46.2407 16.2408C45.1159 17.3656 43.5907 17.9983 41.9999 18Z" fill="#263357"/>
</svg>
