<svg width="64" height="64" viewBox="0 0 64 64" fill="none" xmlns="http://www.w3.org/2000/svg">
<path d="M32 2C29.4288 2 26.9154 2.76244 24.7776 4.1909C22.6398 5.61935 20.9735 7.64968 19.9896 10.0251C19.0056 12.4006 18.7482 15.0144 19.2498 17.5362C19.7514 20.0579 20.9895 22.3743 22.8076 24.1924C24.6257 26.0105 26.9421 27.2486 29.4638 27.7502C31.9856 28.2518 34.5995 27.9944 36.9749 27.0104C39.3503 26.0265 41.3807 24.3603 42.8091 22.2224C44.2376 20.0846 45 17.5712 45 15C45 11.5522 43.6304 8.24558 41.1924 5.80761C38.7544 3.36964 35.4478 2 32 2ZM32 24C30.22 24 28.4799 23.4722 26.9999 22.4832C25.5198 21.4943 24.3663 20.0887 23.6851 18.4442C23.0039 16.7996 22.8257 14.99 23.1729 13.2442C23.5202 11.4984 24.3774 9.89471 25.636 8.63604C26.8947 7.37737 28.4984 6.5202 30.2442 6.17293C31.99 5.82567 33.7996 6.0039 35.4442 6.68508C37.0887 7.36627 38.4943 8.51982 39.4832 9.99987C40.4722 11.4799 41 13.22 41 15C40.9998 17.3869 40.0515 19.676 38.3637 21.3637C36.676 23.0515 34.3869 23.9998 32 24Z" fill="#7EA4FF"/>
<path d="M17 34H14V20H6V34H3L10 43L17 34Z" fill="#7EA4FF"/>
<path d="M61 26H58V12H50V26H47L54 35L61 26Z" fill="#7EA4FF"/>
<path d="M32 5C30.0222 5 28.0888 5.58649 26.4443 6.6853C24.7998 7.78412 23.5181 9.3459 22.7612 11.1732C22.0043 13.0004 21.8063 15.0111 22.1922 16.9509C22.578 18.8907 23.5304 20.6725 24.9289 22.0711C26.3275 23.4696 28.1093 24.422 30.0491 24.8079C31.9889 25.1937 33.9996 24.9957 35.8268 24.2388C37.6541 23.4819 39.2159 22.2002 40.3147 20.5557C41.4135 18.9112 42 16.9778 42 15C41.9969 12.3488 40.9424 9.80703 39.0677 7.93233C37.193 6.05763 34.6512 5.00308 32 5ZM32 23C30.4178 23 28.871 22.5308 27.5554 21.6518C26.2399 20.7727 25.2145 19.5233 24.609 18.0615C24.0035 16.5997 23.845 14.9911 24.1537 13.4393C24.4624 11.8874 25.2243 10.462 26.3432 9.34315C27.462 8.22433 28.8874 7.4624 30.4393 7.15372C31.9911 6.84504 33.5997 7.00346 35.0615 7.60896C36.5233 8.21447 37.7727 9.23984 38.6518 10.5554C39.5308 11.871 40 13.4177 40 15C39.9976 17.121 39.154 19.1544 37.6542 20.6542C36.1545 22.154 34.121 22.9976 32 23Z" fill="white"/>
<path d="M32 1C29.2311 1 26.5243 1.82109 24.222 3.35943C21.9197 4.89777 20.1253 7.08427 19.0657 9.64243C18.0061 12.2006 17.7288 15.0155 18.269 17.7313C18.8092 20.447 20.1426 22.9416 22.1005 24.8995C24.0584 26.8574 26.553 28.1908 29.2687 28.731C31.9845 29.2712 34.7994 28.9939 37.3576 27.9343C39.9157 26.8747 42.1022 25.0803 43.6406 22.778C45.1789 20.4757 46 17.7689 46 15C45.9959 11.2882 44.5196 7.72963 41.895 5.105C39.2704 2.48037 35.7118 1.00407 32 1ZM32 27C29.6266 27 27.3066 26.2962 25.3332 24.9776C23.3598 23.6591 21.8217 21.7849 20.9135 19.5922C20.0052 17.3995 19.7676 14.9867 20.2306 12.6589C20.6936 10.3311 21.8365 8.19295 23.5147 6.51472C25.193 4.83649 27.3311 3.6936 29.6589 3.23058C31.9867 2.76755 34.3995 3.00519 36.5922 3.91345C38.7849 4.8217 40.6591 6.35977 41.9776 8.33316C43.2962 10.3065 44 12.6266 44 15C43.9962 18.1814 42.7307 21.2315 40.4811 23.4811C38.2315 25.7307 35.1814 26.9962 32 27Z" fill="white"/>
<path d="M35 15V18C35 18.2652 34.8946 18.5196 34.7071 18.7071C34.5196 18.8946 34.2652 19 34 19H33C33 19.2652 32.8946 19.5196 32.7071 19.7071C32.5196 19.8946 32.2652 20 32 20C31.7348 20 31.4804 19.8946 31.2929 19.7071C31.1054 19.5196 31 19.2652 31 19H30C29.7348 19 29.4804 18.8946 29.2929 18.7071C29.1054 18.5196 29 18.2652 29 18C29 17.7348 29.1054 17.4804 29.2929 17.2929C29.4804 17.1054 29.7348 17 30 17H33V16H30C29.7348 16 29.4804 15.8946 29.2929 15.7071C29.1054 15.5196 29 15.2652 29 15V12C29 11.7348 29.1054 11.4804 29.2929 11.2929C29.4804 11.1054 29.7348 11 30 11H31C31 10.7348 31.1054 10.4804 31.2929 10.2929C31.4804 10.1054 31.7348 10 32 10C32.2652 10 32.5196 10.1054 32.7071 10.2929C32.8946 10.4804 33 10.7348 33 11H34C34.2652 11 34.5196 11.1054 34.7071 11.2929C34.8946 11.4804 35 11.7348 35 12C35 12.2652 34.8946 12.5196 34.7071 12.7071C34.5196 12.8946 34.2652 13 34 13H31V14H34C34.2652 14 34.5196 14.1054 34.7071 14.2929C34.8946 14.4804 35 14.7348 35 15Z" fill="white"/>
<path d="M47.895 41.5525C47.8117 41.3865 47.6839 41.2469 47.5259 41.1493C47.3678 41.0517 47.1857 41 47 41H42V31C42 30.7348 41.8946 30.4804 41.7071 30.2929C41.5196 30.1054 41.2652 30 41 30H23C22.7348 30 22.4804 30.1054 22.2929 30.2929C22.1054 30.4804 22 30.7348 22 31V41H17C16.8143 41 16.6322 41.0517 16.4743 41.1493C16.3163 41.247 16.1886 41.3867 16.1056 41.5528C16.0225 41.7189 15.9874 41.9048 16.004 42.0898C16.0207 42.2748 16.0886 42.4514 16.2 42.6L31.2 62.6C31.2931 62.7242 31.4139 62.825 31.5528 62.8944C31.6916 62.9639 31.8448 63 32 63C32.1552 63 32.3084 62.9639 32.4472 62.8944C32.5861 62.825 32.7069 62.7242 32.8 62.6L47.8 42.6C47.9114 42.4514 47.9793 42.2747 47.9961 42.0897C48.0129 41.9047 47.9779 41.7187 47.895 41.5525ZM32 60.3338L19 43H23C23.2652 43 23.5196 42.8946 23.7071 42.7071C23.8946 42.5196 24 42.2652 24 42V32H40V42C40 42.2652 40.1054 42.5196 40.2929 42.7071C40.4804 42.8946 40.7348 43 41 43H45L32 60.3338Z" fill="white"/>
<path d="M17.8983 33.5606C17.8161 33.3925 17.6883 33.2507 17.5295 33.1516C17.3706 33.0525 17.1872 33 17 33H15V20C15 19.7348 14.8946 19.4804 14.7071 19.2929C14.5195 19.1054 14.2652 19 14 19H5.99997C5.73475 19 5.4804 19.1054 5.29286 19.2929C5.10533 19.4804 4.99997 19.7348 4.99997 20V33H2.99997C2.81278 33 2.62935 33.0526 2.47054 33.1517C2.31174 33.2508 2.18395 33.3925 2.1017 33.5606C2.01945 33.7288 1.98605 33.9166 2.0053 34.1028C2.02456 34.289 2.09568 34.4661 2.2106 34.6139L9.21059 43.6139C9.30409 43.7341 9.4238 43.8314 9.5606 43.8983C9.6974 43.9652 9.84768 44 9.99997 44C10.1523 44 10.3025 43.9652 10.4393 43.8983C10.5761 43.8314 10.6959 43.7341 10.7893 43.6139L17.7893 34.6139C17.9043 34.4661 17.9754 34.2891 17.9947 34.1029C18.014 33.9167 17.9806 33.7288 17.8983 33.5606ZM9.99997 41.3713L5.0446 35H5.99997C6.26519 35 6.51954 34.8946 6.70708 34.7071C6.89461 34.5196 6.99997 34.2652 6.99997 34V21H13V34C13 34.2652 13.1053 34.5196 13.2929 34.7071C13.4804 34.8946 13.7348 35 14 35H14.9553L9.99997 41.3713Z" fill="white"/>
<path d="M6 18H14C14.2652 18 14.5196 17.8946 14.7071 17.7071C14.8946 17.5196 15 17.2652 15 17V14C15 13.7348 14.8946 13.4804 14.7071 13.2929C14.5196 13.1054 14.2652 13 14 13H6C5.73478 13 5.48043 13.1054 5.29289 13.2929C5.10536 13.4804 5 13.7348 5 14V17C5 17.2652 5.10536 17.5196 5.29289 17.7071C5.48043 17.8946 5.73478 18 6 18ZM7 15H13V16H7V15Z" fill="white"/>
<path d="M61.8984 25.5606C61.8161 25.3925 61.6883 25.2507 61.5295 25.1516C61.3706 25.0525 61.1872 25 61 25H59V12C59 11.7348 58.8946 11.4804 58.7071 11.2929C58.5195 11.1054 58.2652 11 58 11H50C49.7348 11 49.4804 11.1054 49.2929 11.2929C49.1053 11.4804 49 11.7348 49 12V25H47C46.8128 25 46.6293 25.0526 46.4705 25.1517C46.3117 25.2508 46.1839 25.3925 46.1017 25.5606C46.0195 25.7288 45.9861 25.9166 46.0053 26.1028C46.0246 26.289 46.0957 26.4661 46.2106 26.6139L53.2106 35.6139C53.3041 35.7341 53.4238 35.8314 53.5606 35.8983C53.6974 35.9652 53.8477 36 54 36C54.1523 36 54.3025 35.9652 54.4393 35.8983C54.5761 35.8314 54.6959 35.7341 54.7893 35.6139L61.7893 26.6139C61.9043 26.4661 61.9754 26.2891 61.9947 26.1029C62.014 25.9167 61.9806 25.7288 61.8984 25.5606ZM54 33.3713L49.0446 27H50C50.2652 27 50.5195 26.8946 50.7071 26.7071C50.8946 26.5196 51 26.2652 51 26V13H57V26C57 26.2652 57.1053 26.5196 57.2929 26.7071C57.4804 26.8946 57.7348 27 58 27H58.9553L54 33.3713Z" fill="white"/>
<path d="M50 10H58C58.2652 10 58.5196 9.89464 58.7071 9.70711C58.8946 9.51957 59 9.26522 59 9V6C59 5.73478 58.8946 5.48043 58.7071 5.29289C58.5196 5.10536 58.2652 5 58 5H50C49.7348 5 49.4804 5.10536 49.2929 5.29289C49.1054 5.48043 49 5.73478 49 6V9C49 9.26522 49.1054 9.51957 49.2929 9.70711C49.4804 9.89464 49.7348 10 50 10ZM51 7H57V8H51V7Z" fill="white"/>
</svg>
