<svg width="64" height="64" viewBox="0 0 64 64" fill="none" xmlns="http://www.w3.org/2000/svg">
<path d="M42.0215 17C41.0326 17 40.0659 17.2932 39.2436 17.8427C38.4214 18.3921 37.7805 19.173 37.4021 20.0866C37.0236 21.0002 36.9246 22.0055 37.1176 22.9754C37.3105 23.9454 37.7867 24.8363 38.486 25.5355C39.1852 26.2348 40.0761 26.711 41.046 26.9039C42.0159 27.0968 43.0213 26.9978 43.9349 26.6194C44.8485 26.241 45.6294 25.6001 46.1788 24.7778C46.7282 23.9556 47.0215 22.9889 47.0215 22C47.0215 20.6739 46.4947 19.4021 45.557 18.4645C44.6193 17.5268 43.3476 17 42.0215 17V17ZM42.0215 24C41.6259 24 41.2392 23.8827 40.9103 23.6629C40.5814 23.4432 40.3251 23.1308 40.1737 22.7654C40.0224 22.3999 39.9827 21.9978 40.0599 21.6098C40.1371 21.2219 40.3276 20.8655 40.6073 20.5858C40.887 20.3061 41.2433 20.1156 41.6313 20.0384C42.0193 19.9613 42.4214 20.0009 42.7868 20.1522C43.1523 20.3036 43.4647 20.56 43.6844 20.8889C43.9042 21.2178 44.0215 21.6044 44.0215 22C44.0215 22.5304 43.8108 23.0391 43.4357 23.4142C43.0606 23.7893 42.5519 24 42.0215 24Z" fill="#7EA4FF"/>
<path d="M42.0215 2C38.0659 2 34.1991 3.17298 30.9101 5.37061C27.6211 7.56824 25.0577 10.6918 23.5439 14.3463C22.0302 18.0009 21.6341 22.0222 22.4058 25.9018C23.1775 29.7814 25.0823 33.3451 27.8794 36.1421C30.6764 38.9392 34.2401 40.844 38.1197 41.6157C41.9993 42.3874 46.0206 41.9913 49.6752 40.4776C53.3297 38.9638 56.4533 36.4004 58.6509 33.1114C60.8485 29.8224 62.0215 25.9556 62.0215 22C62.0216 19.3735 61.5043 16.7728 60.4993 14.3462C59.4942 11.9197 58.021 9.71484 56.1638 7.85764C54.3067 6.00045 52.1018 4.52727 49.6753 3.52221C47.2487 2.51715 44.648 1.9999 42.0215 2V2ZM42.0215 38C38.857 38 35.7636 37.0616 33.1324 35.3035C30.5012 33.5454 28.4504 31.0466 27.2394 28.1229C26.0284 25.1993 25.7116 21.9823 26.3289 18.8786C26.9463 15.7749 28.4701 12.9239 30.7078 10.6863C32.9454 8.44865 35.7964 6.9248 38.9 6.30744C42.0037 5.69007 45.2208 6.00693 48.1444 7.21793C51.068 8.42893 53.5669 10.4797 55.325 13.1109C57.0831 15.7421 58.0215 18.8355 58.0215 22C58.0215 26.2435 56.3358 30.3131 53.3352 33.3137C50.3346 36.3143 46.265 38 42.0215 38Z" fill="#7EA4FF"/>
<path d="M42.0215 17C41.0326 17 40.0659 17.2932 39.2436 17.8427C38.4214 18.3921 37.7805 19.173 37.4021 20.0866C37.0236 21.0002 36.9246 22.0055 37.1176 22.9754C37.3105 23.9454 37.7867 24.8363 38.486 25.5355C39.1852 26.2348 40.0761 26.711 41.046 26.9039C42.0159 27.0968 43.0213 26.9978 43.9349 26.6194C44.8485 26.241 45.6294 25.6001 46.1788 24.7778C46.7282 23.9556 47.0215 22.9889 47.0215 22C47.0215 20.6739 46.4947 19.4021 45.557 18.4645C44.6193 17.5268 43.3476 17 42.0215 17V17ZM42.0215 24C41.6259 24 41.2392 23.8827 40.9103 23.6629C40.5814 23.4432 40.3251 23.1308 40.1737 22.7654C40.0224 22.3999 39.9827 21.9978 40.0599 21.6098C40.1371 21.2219 40.3276 20.8655 40.6073 20.5858C40.887 20.3061 41.2433 20.1156 41.6313 20.0384C42.0193 19.9613 42.4214 20.0009 42.7868 20.1522C43.1523 20.3036 43.4647 20.56 43.6844 20.8889C43.9042 21.2178 44.0215 21.6044 44.0215 22C44.0215 22.5304 43.8108 23.0391 43.4357 23.4142C43.0606 23.7893 42.5519 24 42.0215 24Z" fill="#7EA4FF"/>
<path d="M42.0215 17C41.0326 17 40.0659 17.2932 39.2436 17.8427C38.4214 18.3921 37.7805 19.173 37.4021 20.0866C37.0236 21.0002 36.9246 22.0055 37.1176 22.9754C37.3105 23.9454 37.7867 24.8363 38.486 25.5355C39.1852 26.2348 40.0761 26.711 41.046 26.9039C42.0159 27.0968 43.0213 26.9978 43.9349 26.6194C44.8485 26.241 45.6294 25.6001 46.1788 24.7778C46.7282 23.9556 47.0215 22.9889 47.0215 22C47.0215 20.6739 46.4947 19.4021 45.557 18.4645C44.6193 17.5268 43.3476 17 42.0215 17V17ZM42.0215 24C41.6259 24 41.2392 23.8827 40.9103 23.6629C40.5814 23.4432 40.3251 23.1308 40.1737 22.7654C40.0224 22.3999 39.9827 21.9978 40.0599 21.6098C40.1371 21.2219 40.3276 20.8655 40.6073 20.5858C40.887 20.3061 41.2433 20.1156 41.6313 20.0384C42.0193 19.9613 42.4214 20.0009 42.7868 20.1522C43.1523 20.3036 43.4647 20.56 43.6844 20.8889C43.9042 21.2178 44.0215 21.6044 44.0215 22C44.0215 22.5304 43.8108 23.0391 43.4357 23.4142C43.0606 23.7893 42.5519 24 42.0215 24Z" fill="#7EA4FF"/>
<path d="M42.0215 17C41.0326 17 40.0659 17.2932 39.2436 17.8427C38.4214 18.3921 37.7805 19.173 37.4021 20.0866C37.0236 21.0002 36.9246 22.0055 37.1176 22.9754C37.3105 23.9454 37.7867 24.8363 38.486 25.5355C39.1852 26.2348 40.0761 26.711 41.046 26.9039C42.0159 27.0968 43.0213 26.9978 43.9349 26.6194C44.8485 26.241 45.6294 25.6001 46.1788 24.7778C46.7282 23.9556 47.0215 22.9889 47.0215 22C47.0215 20.6739 46.4947 19.4021 45.557 18.4645C44.6193 17.5268 43.3476 17 42.0215 17V17ZM42.0215 24C41.6259 24 41.2392 23.8827 40.9103 23.6629C40.5814 23.4432 40.3251 23.1308 40.1737 22.7654C40.0224 22.3999 39.9827 21.9978 40.0599 21.6098C40.1371 21.2219 40.3276 20.8655 40.6073 20.5858C40.887 20.3061 41.2433 20.1156 41.6313 20.0384C42.0193 19.9613 42.4214 20.0009 42.7868 20.1522C43.1523 20.3036 43.4647 20.56 43.6844 20.8889C43.9042 21.2178 44.0215 21.6044 44.0215 22C44.0215 22.5304 43.8108 23.0391 43.4357 23.4142C43.0606 23.7893 42.5519 24 42.0215 24Z" fill="#7EA4FF"/>
<path d="M29.3639 37.4862C28.3296 36.6394 27.382 35.6918 26.5352 34.6575L29.3639 37.4862Z" fill="#7EA4FF"/>
<path d="M23.3447 46.2076L8.1172 61.4351C7.93147 61.6208 7.71097 61.7682 7.46829 61.8687C7.22561 61.9693 6.9655 62.021 6.70282 62.021C6.44014 62.021 6.18003 61.9693 5.93735 61.8687C5.69467 61.7682 5.47417 61.6208 5.28844 61.4351L2.46094 58.6063C2.27519 58.4207 2.12783 58.2003 2.02729 57.9577C1.92675 57.7152 1.875 57.4551 1.875 57.1926C1.875 56.93 1.92675 56.6699 2.02729 56.4274C2.12783 56.1848 2.27519 55.9644 2.46094 55.7788L17.6884 40.55L21.9309 44.7925L23.3447 46.2076Z" fill="#7EA4FF"/>
<path d="M42.0216 30C34.4597 30 28.5025 22.9399 28.2526 22.6394C28.1032 22.4598 28.0215 22.2336 28.0215 22C28.0215 21.7664 28.1032 21.5402 28.2526 21.3606C28.5026 21.0606 34.4597 14 42.0216 14C49.5835 14 55.5406 21.0601 55.7905 21.3606C55.9398 21.5402 56.0216 21.7664 56.0216 22C56.0216 22.2336 55.9398 22.4598 55.7905 22.6394C55.5406 22.9399 49.5833 30 42.0216 30ZM30.3748 22C31.9727 23.6649 36.6498 28 42.0216 28C47.3933 28 52.0703 23.6649 53.6682 22C52.071 20.3357 47.3932 16 42.0216 16C36.65 16 31.9727 20.3351 30.3748 22Z" fill="white"/>
<path d="M42.0215 28C40.8348 28 39.6748 27.6481 38.6881 26.9888C37.7014 26.3295 36.9323 25.3925 36.4782 24.2961C36.0241 23.1997 35.9053 21.9933 36.1368 20.8295C36.3683 19.6656 36.9397 18.5965 37.7788 17.7574C38.618 16.9182 39.6871 16.3468 40.8509 16.1153C42.0148 15.8838 43.2212 16.0026 44.3176 16.4567C45.4139 16.9109 46.351 17.6799 47.0103 18.6666C47.6696 19.6533 48.0215 20.8133 48.0215 22C48.0197 23.5908 47.387 25.1158 46.2622 26.2407C45.1373 27.3655 43.6122 27.9982 42.0215 28V28ZM42.0215 18C41.2304 18 40.457 18.2346 39.7992 18.6741C39.1414 19.1137 38.6287 19.7384 38.326 20.4693C38.0232 21.2002 37.944 22.0044 38.0983 22.7804C38.2527 23.5563 38.6336 24.269 39.1931 24.8284C39.7525 25.3878 40.4652 25.7688 41.2411 25.9231C42.017 26.0775 42.8213 25.9983 43.5522 25.6955C44.2831 25.3928 44.9078 24.8801 45.3474 24.2223C45.7869 23.5645 46.0215 22.7911 46.0215 22C46.0203 20.9395 45.5985 19.9227 44.8486 19.1729C44.0987 18.423 43.082 18.0012 42.0215 18Z" fill="white"/>
<path d="M42.0215 25C41.4281 25 40.8481 24.8241 40.3548 24.4944C39.8614 24.1648 39.4769 23.6962 39.2498 23.148C39.0228 22.5999 38.9634 21.9967 39.0791 21.4147C39.1949 20.8328 39.4806 20.2982 39.9002 19.8787C40.3197 19.4591 40.8543 19.1734 41.4362 19.0576C42.0182 18.9419 42.6214 19.0013 43.1695 19.2284C43.7177 19.4554 44.1863 19.8399 44.5159 20.3333C44.8455 20.8266 45.0215 21.4067 45.0215 22C45.0206 22.7954 44.7042 23.5579 44.1418 24.1203C43.5794 24.6827 42.8169 24.9991 42.0215 25V25ZM42.0215 21C41.8237 21 41.6304 21.0586 41.4659 21.1685C41.3015 21.2784 41.1733 21.4346 41.0976 21.6173C41.0219 21.8 41.0021 22.0011 41.0407 22.1951C41.0793 22.3891 41.1745 22.5673 41.3144 22.7071C41.4542 22.847 41.6324 22.9422 41.8264 22.9808C42.0204 23.0194 42.2214 22.9996 42.4042 22.9239C42.5869 22.8482 42.7431 22.72 42.853 22.5556C42.9628 22.3911 43.0215 22.1978 43.0215 22C43.0212 21.7349 42.9157 21.4807 42.7283 21.2932C42.5408 21.1058 42.2866 21.0003 42.0215 21Z" fill="white"/>
<path d="M42.0215 39C32.6476 39 25.0215 31.3739 25.0215 22C25.0215 12.6261 32.6476 5 42.0215 5C51.3953 5 59.0215 12.6261 59.0215 22C59.0215 31.3739 51.3952 39 42.0215 39ZM42.0215 7C39.0548 7 36.1547 7.87973 33.6879 9.52796C31.2212 11.1762 29.2986 13.5189 28.1633 16.2597C27.028 19.0006 26.7309 22.0166 27.3097 24.9264C27.8885 27.8361 29.3171 30.5088 31.4149 32.6066C33.5127 34.7044 36.1854 36.133 39.0951 36.7118C42.0048 37.2906 45.0208 36.9935 47.7617 35.8582C50.5026 34.7229 52.8453 32.8003 54.4935 30.3336C56.1417 27.8668 57.0215 24.9667 57.0215 22C57.017 18.0231 55.4352 14.2104 52.6231 11.3984C49.811 8.5863 45.9983 7.0045 42.0215 7V7Z" fill="white"/>
<path d="M42.0215 43C30.442 43 21.0215 33.5795 21.0215 22C21.0215 10.4205 30.442 1 42.0215 1C53.601 1 63.0215 10.4205 63.0215 22C63.0215 33.5795 53.6006 43 42.0215 43ZM42.0215 3C31.5449 3 23.0215 11.5234 23.0215 22C23.0215 32.4766 31.5449 41 42.0215 41C52.4981 41 61.0215 32.4766 61.0215 22C61.0215 11.5234 52.498 3 42.0215 3Z" fill="white"/>
<path d="M21.9309 45.7926C21.7996 45.7928 21.6696 45.7671 21.5483 45.7169C21.4269 45.6667 21.3167 45.593 21.2239 45.5001L18.3965 42.6726C18.3031 42.5792 18.2291 42.4683 18.1789 42.3462C18.1286 42.2242 18.103 42.0933 18.1035 41.9613C18.1041 41.8293 18.1308 41.6987 18.182 41.577C18.2333 41.4553 18.3082 41.345 18.4023 41.2525L25.8336 33.945C26.0227 33.759 26.2779 33.6558 26.5431 33.658C26.8083 33.6602 27.0618 33.7677 27.2478 33.9568C27.4337 34.1459 27.537 34.4011 27.5347 34.6663C27.5325 34.9315 27.425 35.185 27.2359 35.371L20.5235 41.971L21.9377 43.3843L28.6627 36.7732C28.7563 36.6812 28.8672 36.6084 28.989 36.5592C29.1107 36.51 29.241 36.4852 29.3723 36.4864C29.5036 36.4875 29.6334 36.5145 29.7543 36.5657C29.8752 36.617 29.9848 36.6916 30.0769 36.7853C30.1689 36.8789 30.2417 36.9898 30.2909 37.1116C30.3401 37.2333 30.3649 37.3636 30.3637 37.4949C30.3626 37.6262 30.3356 37.756 30.2844 37.8769C30.2331 37.9978 30.1585 38.1074 30.0648 38.1995L22.6322 45.5057C22.4453 45.6899 22.1933 45.793 21.9309 45.7926V45.7926Z" fill="white"/>
<path d="M6.70336 63.0194C6.30944 63.0201 5.91926 62.943 5.55523 62.7925C5.19121 62.6419 4.8605 62.421 4.58211 62.1423L1.75373 59.3138C1.47514 59.0352 1.25415 58.7045 1.10338 58.3405C0.952602 57.9765 0.875 57.5864 0.875 57.1924C0.875 56.7984 0.952602 56.4083 1.10338 56.0443C1.25415 55.6803 1.47514 55.3496 1.75373 55.071L16.9816 39.8431C17.0745 39.7503 17.1847 39.6766 17.306 39.6264C17.4274 39.5761 17.5574 39.5502 17.6887 39.5502C17.8201 39.5502 17.9501 39.5761 18.0714 39.6264C18.1928 39.6766 18.303 39.7503 18.3959 39.8431L24.0526 45.5C24.2401 45.6876 24.3455 45.9419 24.3455 46.2071C24.3455 46.4723 24.2401 46.7266 24.0526 46.9141L8.82499 62.1422C8.54656 62.4209 8.2158 62.6419 7.85171 62.7925C7.48761 62.943 7.09735 63.0201 6.70336 63.0194V63.0194ZM17.6887 41.9645L3.16786 56.4853C3.075 56.5781 3.00133 56.6884 2.95107 56.8097C2.90082 56.931 2.87495 57.0611 2.87495 57.1924C2.87495 57.3237 2.90082 57.4538 2.95107 57.5751C3.00133 57.6964 3.075 57.8067 3.16786 57.8995L5.99624 60.728C6.18395 60.9152 6.43825 61.0204 6.70336 61.0204C6.96847 61.0204 7.22277 60.9152 7.41049 60.728L21.9314 46.2071L17.6887 41.9645Z" fill="white"/>
<path d="M8.77152 55.1251C8.57373 55.1251 8.38039 55.0665 8.21593 54.9566C8.05148 54.8467 7.9233 54.6905 7.84761 54.5078C7.77192 54.3251 7.75211 54.124 7.7907 53.93C7.82929 53.736 7.92454 53.5578 8.0644 53.418L13.5644 47.918C13.7523 47.7323 14.0061 47.6286 14.2702 47.6294C14.5344 47.6302 14.7875 47.7355 14.9743 47.9223C15.1611 48.1091 15.2664 48.3622 15.2672 48.6264C15.268 48.8906 15.1642 49.1443 14.9785 49.3322L9.47852 54.8322C9.38578 54.9252 9.27558 54.999 9.15425 55.0492C9.03292 55.0995 8.90285 55.1253 8.77152 55.1251V55.1251Z" fill="white"/>
<path d="M5.27152 58.6251C5.07374 58.6251 4.88039 58.5665 4.71593 58.4566C4.55148 58.3467 4.4233 58.1905 4.34761 58.0078C4.27192 57.8251 4.25211 57.624 4.2907 57.43C4.32929 57.236 4.42454 57.0578 4.5644 56.918L5.5644 55.918C5.75233 55.7323 6.00608 55.6286 6.27025 55.6294C6.53441 55.6302 6.78752 55.7355 6.97431 55.9223C7.16109 56.1091 7.26637 56.3622 7.26716 56.6264C7.26795 56.8906 7.16419 57.1443 6.97852 57.3322L5.97852 58.3322C5.88578 58.4252 5.77558 58.499 5.65425 58.5492C5.53292 58.5995 5.40285 58.6253 5.27152 58.6251Z" fill="white"/>
</svg>
