<svg width="64" height="64" viewBox="0 0 64 64" fill="none" xmlns="http://www.w3.org/2000/svg">
<path d="M59.5 7H4.5C4.17167 6.9999 3.84653 7.0645 3.54317 7.1901C3.23982 7.3157 2.96418 7.49985 2.73201 7.73201C2.49985 7.96418 2.3157 8.23982 2.1901 8.54317C2.0645 8.84653 1.9999 9.17167 2 9.5V43H62V9.5C62.0001 9.17167 61.9355 8.84653 61.8099 8.54317C61.6843 8.23982 61.5002 7.96418 61.268 7.73201C61.0358 7.49985 60.7602 7.3157 60.4568 7.1901C60.1535 7.0645 59.8283 6.9999 59.5 7ZM14 29C13.6044 29 13.2178 28.8827 12.8889 28.6629C12.56 28.4432 12.3036 28.1308 12.1522 27.7654C12.0009 27.3999 11.9613 26.9978 12.0384 26.6098C12.1156 26.2219 12.3061 25.8655 12.5858 25.5858C12.8655 25.3061 13.2219 25.1156 13.6098 25.0384C13.9978 24.9613 14.3999 25.0009 14.7654 25.1522C15.1308 25.3036 15.4432 25.56 15.6629 25.8889C15.8827 26.2178 16 26.6044 16 27C16 27.5304 15.7893 28.0391 15.4142 28.4142C15.0391 28.7893 14.5304 29 14 29ZM26 29C25.6044 29 25.2178 28.8827 24.8889 28.6629C24.56 28.4432 24.3036 28.1308 24.1522 27.7654C24.0009 27.3999 23.9613 26.9978 24.0384 26.6098C24.1156 26.2219 24.3061 25.8655 24.5858 25.5858C24.8655 25.3061 25.2219 25.1156 25.6098 25.0384C25.9978 24.9613 26.3999 25.0009 26.7654 25.1522C27.1308 25.3036 27.4432 25.56 27.6629 25.8889C27.8827 26.2178 28 26.6044 28 27C28 27.5304 27.7893 28.0391 27.4142 28.4142C27.0391 28.7893 26.5304 29 26 29ZM26 22C26 22 21 17.7612 21 15C21 13.6739 21.5268 12.4021 22.4645 11.4645C23.4021 10.5268 24.6739 10 26 10C27.3261 10 28.5979 10.5268 29.5355 11.4645C30.4732 12.4021 31 13.6739 31 15C31 17.7612 26 22 26 22ZM36 27C36 26.6044 36.1173 26.2178 36.3371 25.8889C36.5568 25.56 36.8692 25.3036 37.2346 25.1522C37.6001 25.0009 38.0022 24.9613 38.3902 25.0384C38.7781 25.1156 39.1345 25.3061 39.4142 25.5858C39.6939 25.8655 39.8844 26.2219 39.9616 26.6098C40.0387 26.9978 39.9991 27.3999 39.8478 27.7654C39.6964 28.1308 39.44 28.4432 39.1111 28.6629C38.7822 28.8827 38.3956 29 38 29C37.4696 29 36.9609 28.7893 36.5858 28.4142C36.2107 28.0391 36 27.5304 36 27ZM47 40H37V35H39V31L43 35H47V40ZM50 29C49.6044 29 49.2178 28.8827 48.8889 28.6629C48.56 28.4432 48.3036 28.1308 48.1522 27.7654C48.0009 27.3999 47.9613 26.9978 48.0384 26.6098C48.1156 26.2219 48.3061 25.8655 48.5858 25.5858C48.8655 25.3061 49.2219 25.1156 49.6098 25.0384C49.9978 24.9613 50.3999 25.0009 50.7654 25.1522C51.1308 25.3036 51.4432 25.56 51.6629 25.8889C51.8827 26.2178 52 26.6044 52 27C52 27.5304 51.7893 28.0391 51.4142 28.4142C51.0391 28.7893 50.5304 29 50 29ZM52 18H50V22L46 18H42V13H52V18Z" fill="#80A6FF"/>
<path d="M24 49L23 54H41L39.875 49H24Z" fill="#80A6FF"/>
<path d="M26 17C27.1046 17 28 16.1046 28 15C28 13.8954 27.1046 13 26 13C24.8954 13 24 13.8954 24 15C24 16.1046 24.8954 17 26 17Z" fill="#80A6FF"/>
<path d="M59.5 6H4.5C3.57206 6.00103 2.68241 6.3701 2.02626 7.02626C1.3701 7.68241 1.00103 8.57206 1 9.5V46.5C1.00103 47.4279 1.3701 48.3176 2.02626 48.9737C2.68241 49.6299 3.57206 49.999 4.5 50H22.78L22.18 53H17C16.7348 53 16.4804 53.1054 16.2929 53.2929C16.1054 53.4804 16 53.7348 16 54V57C16 57.2652 16.1054 57.5196 16.2929 57.7071C16.4804 57.8946 16.7348 58 17 58H47C47.2652 58 47.5196 57.8946 47.7071 57.7071C47.8946 57.5196 48 57.2652 48 57V54C48 53.7348 47.8946 53.4804 47.7071 53.2929C47.5196 53.1054 47.2652 53 47 53H41.8L41.125 50H59.5C60.4279 49.999 61.3176 49.6299 61.9737 48.9737C62.6299 48.3176 62.999 47.4279 63 46.5V9.5C62.999 8.57206 62.6299 7.68241 61.9737 7.02626C61.3176 6.3701 60.4279 6.00103 59.5 6ZM46 55V56H18V55H46ZM24.22 53L24.82 50H39.075L39.75 53H24.22ZM61 46.5C60.9997 46.8977 60.8415 47.2791 60.5603 47.5603C60.2791 47.8415 59.8977 47.9997 59.5 48H4.5C4.10228 47.9997 3.72094 47.8415 3.43971 47.5603C3.15847 47.2791 3.00033 46.8977 3 46.5V44H61V46.5ZM61 42H3V9.5C3.00033 9.10228 3.15847 8.72094 3.43971 8.43971C3.72094 8.15847 4.10228 8.00033 4.5 8H59.5C59.8977 8.00033 60.2791 8.15847 60.5603 8.43971C60.8415 8.72094 60.9997 9.10228 61 9.5V42Z" fill="#263357"/>
<path d="M6 28H11.172C11.379 28.5846 11.762 29.0907 12.2685 29.4487C12.7749 29.8066 13.3798 29.9988 14 29.9988C14.6202 29.9988 15.2251 29.8066 15.7315 29.4487C16.238 29.0907 16.621 28.5846 16.828 28H23.172C23.379 28.5846 23.762 29.0907 24.2685 29.4487C24.7749 29.8066 25.3798 29.9988 26 29.9988C26.6202 29.9988 27.2251 29.8066 27.7315 29.4487C28.238 29.0907 28.621 28.5846 28.828 28H35.172C35.379 28.5846 35.762 29.0907 36.2685 29.4487C36.7749 29.8066 37.3798 29.9988 38 29.9988C38.6202 29.9988 39.2251 29.8066 39.7315 29.4487C40.238 29.0907 40.621 28.5846 40.828 28H47.172C47.379 28.5846 47.762 29.0907 48.2685 29.4487C48.7749 29.8066 49.3798 29.9988 50 29.9988C50.6202 29.9988 51.2251 29.8066 51.7315 29.4487C52.238 29.0907 52.621 28.5846 52.828 28H58C58.2652 28 58.5196 27.8947 58.7071 27.7071C58.8946 27.5196 59 27.2652 59 27C59 26.7348 58.8946 26.4804 58.7071 26.2929C58.5196 26.1054 58.2652 26 58 26H52.828C52.621 25.4154 52.238 24.9093 51.7315 24.5514C51.2251 24.1934 50.6202 24.0012 50 24.0012C49.3798 24.0012 48.7749 24.1934 48.2685 24.5514C47.762 24.9093 47.379 25.4154 47.172 26H40.828C40.621 25.4154 40.238 24.9093 39.7315 24.5514C39.2251 24.1934 38.6202 24.0012 38 24.0012C37.3798 24.0012 36.7749 24.1934 36.2685 24.5514C35.762 24.9093 35.379 25.4154 35.172 26H28.828C28.621 25.4154 28.238 24.9093 27.7315 24.5514C27.2251 24.1934 26.6202 24.0012 26 24.0012C25.3798 24.0012 24.7749 24.1934 24.2685 24.5514C23.762 24.9093 23.379 25.4154 23.172 26H16.828C16.621 25.4154 16.238 24.9093 15.7315 24.5514C15.2251 24.1934 14.6202 24.0012 14 24.0012C13.3798 24.0012 12.7749 24.1934 12.2685 24.5514C11.762 24.9093 11.379 25.4154 11.172 26H6C5.73478 26 5.48043 26.1054 5.29289 26.2929C5.10536 26.4804 5 26.7348 5 27C5 27.2652 5.10536 27.5196 5.29289 27.7071C5.48043 27.8947 5.73478 28 6 28ZM50 26C50.1978 26 50.3911 26.0587 50.5556 26.1685C50.72 26.2784 50.8482 26.4346 50.9239 26.6173C50.9996 26.8001 51.0194 27.0011 50.9808 27.1951C50.9422 27.3891 50.847 27.5673 50.7071 27.7071C50.5673 27.847 50.3891 27.9422 50.1951 27.9808C50.0011 28.0194 49.8 27.9996 49.6173 27.9239C49.4346 27.8482 49.2784 27.72 49.1685 27.5556C49.0586 27.3911 49 27.1978 49 27C49.0003 26.7349 49.1057 26.4807 49.2932 26.2932C49.4807 26.1058 49.7349 26.0003 50 26ZM38 26C38.1978 26 38.3911 26.0587 38.5556 26.1685C38.72 26.2784 38.8482 26.4346 38.9239 26.6173C38.9996 26.8001 39.0194 27.0011 38.9808 27.1951C38.9422 27.3891 38.847 27.5673 38.7071 27.7071C38.5673 27.847 38.3891 27.9422 38.1951 27.9808C38.0011 28.0194 37.8 27.9996 37.6173 27.9239C37.4346 27.8482 37.2784 27.72 37.1685 27.5556C37.0586 27.3911 37 27.1978 37 27C37.0003 26.7349 37.1057 26.4807 37.2932 26.2932C37.4807 26.1058 37.7349 26.0003 38 26ZM26 26C26.1978 26 26.3911 26.0587 26.5556 26.1685C26.72 26.2784 26.8482 26.4346 26.9239 26.6173C26.9996 26.8001 27.0194 27.0011 26.9808 27.1951C26.9422 27.3891 26.847 27.5673 26.7071 27.7071C26.5673 27.847 26.3891 27.9422 26.1951 27.9808C26.0011 28.0194 25.8 27.9996 25.6173 27.9239C25.4346 27.8482 25.2784 27.72 25.1685 27.5556C25.0586 27.3911 25 27.1978 25 27C25.0003 26.7349 25.1058 26.4807 25.2932 26.2932C25.4807 26.1058 25.7349 26.0003 26 26ZM14 26C14.1978 26 14.3911 26.0587 14.5556 26.1685C14.72 26.2784 14.8482 26.4346 14.9239 26.6173C14.9996 26.8001 15.0194 27.0011 14.9808 27.1951C14.9422 27.3891 14.847 27.5673 14.7071 27.7071C14.5673 27.847 14.3891 27.9422 14.1951 27.9808C14.0011 28.0194 13.8 27.9996 13.6173 27.9239C13.4346 27.8482 13.2784 27.72 13.1685 27.5556C13.0586 27.3911 13 27.1978 13 27C13.0003 26.7349 13.1058 26.4807 13.2932 26.2932C13.4807 26.1058 13.7349 26.0003 14 26Z" fill="#263357"/>
<path d="M29 15C29 14.4067 28.8241 13.8266 28.4944 13.3333C28.1648 12.8399 27.6962 12.4554 27.148 12.2284C26.5999 12.0013 25.9967 11.9419 25.4147 12.0576C24.8328 12.1734 24.2982 12.4591 23.8787 12.8787C23.4591 13.2982 23.1734 13.8328 23.0576 14.4147C22.9419 14.9967 23.0013 15.5999 23.2284 16.148C23.4554 16.6962 23.8399 17.1648 24.3333 17.4944C24.8266 17.8241 25.4067 18 26 18C26.7954 17.9991 27.5579 17.6827 28.1203 17.1203C28.6827 16.5579 28.9991 15.7954 29 15ZM25 15C25 14.8022 25.0586 14.6089 25.1685 14.4444C25.2784 14.28 25.4346 14.1518 25.6173 14.0761C25.8 14.0004 26.0011 13.9806 26.1951 14.0192C26.3891 14.0578 26.5673 14.153 26.7071 14.2929C26.847 14.4327 26.9422 14.6109 26.9808 14.8049C27.0194 14.9989 26.9996 15.2 26.9239 15.3827C26.8482 15.5654 26.72 15.7216 26.5556 15.8315C26.3911 15.9414 26.1978 16 26 16C25.7349 15.9997 25.4807 15.8942 25.2932 15.7068C25.1058 15.5193 25.0003 15.2651 25 15Z" fill="#263357"/>
<path d="M26 9C24.4092 9.00169 22.8841 9.63437 21.7592 10.7592C20.6344 11.8841 20.0017 13.4092 20 15C20 16.4175 20.9 18.1188 22.7525 20.2C23.5644 21.1085 24.4332 21.9643 25.3538 22.7625C25.5342 22.9158 25.7632 23 26 23C26.2368 23 26.4658 22.9158 26.6462 22.7625C27.5668 21.9643 28.4356 21.1085 29.2475 20.2C31.1 18.1188 32 16.4175 32 15C31.9983 13.4092 31.3656 11.8841 30.2408 10.7592C29.1159 9.63437 27.5908 9.00169 26 9ZM26.0037 20.66C25.5437 20.2312 24.895 19.5988 24.2475 18.8713C22.8187 17.2663 22 15.855 22 15C22 13.9391 22.4214 12.9217 23.1716 12.1716C23.9217 11.4214 24.9391 11 26 11C27.0609 11 28.0783 11.4214 28.8284 12.1716C29.5786 12.9217 30 13.9391 30 15C30 16.48 27.7638 19.035 26.0037 20.66Z" fill="#263357"/>
<path d="M47 34H43.4141L39.7071 30.2929C39.5673 30.153 39.3891 30.0578 39.1951 30.0192C39.0011 29.9806 38.8 30.0004 38.6173 30.0761C38.4346 30.1518 38.2784 30.28 38.1685 30.4444C38.0586 30.6089 38 30.8022 38 31V34H37C36.7348 34 36.4804 34.1054 36.2929 34.2929C36.1054 34.4804 36 34.7348 36 35V40C36 40.2652 36.1054 40.5196 36.2929 40.7071C36.4804 40.8947 36.7348 41 37 41H47C47.2652 41 47.5196 40.8947 47.7071 40.7071C47.8946 40.5196 48 40.2652 48 40V35C48 34.7348 47.8946 34.4804 47.7071 34.2929C47.5196 34.1054 47.2652 34 47 34ZM46 39H38V36H39C39.2652 36 39.5196 35.8947 39.7071 35.7071C39.8946 35.5196 40 35.2652 40 35V33.4141L42.2929 35.7071C42.3857 35.8 42.496 35.8737 42.6173 35.9239C42.7386 35.9742 42.8687 36 43 36H46V39Z" fill="#263357"/>
<path d="M42 19H45.5859L49.2929 22.7071C49.4327 22.847 49.6109 22.9422 49.8049 22.9808C49.9989 23.0194 50.2 22.9996 50.3827 22.9239C50.5654 22.8482 50.7216 22.72 50.8315 22.5556C50.9414 22.3911 51 22.1978 51 22V19H52C52.2652 19 52.5196 18.8946 52.7071 18.7071C52.8946 18.5196 53 18.2652 53 18V13C53 12.7348 52.8946 12.4804 52.7071 12.2929C52.5196 12.1054 52.2652 12 52 12H42C41.7348 12 41.4804 12.1054 41.2929 12.2929C41.1054 12.4804 41 12.7348 41 13V18C41 18.2652 41.1054 18.5196 41.2929 18.7071C41.4804 18.8946 41.7348 19 42 19ZM43 14H51V17H50C49.7348 17 49.4804 17.1054 49.2929 17.2929C49.1054 17.4804 49 17.7348 49 18V19.5859L46.7071 17.2929C46.6143 17.2 46.504 17.1264 46.3827 17.0761C46.2614 17.0259 46.1313 17 46 17H43V14Z" fill="#263357"/>
</svg>
