<svg width="16" height="17" viewBox="0 0 16 17" fill="none" xmlns="http://www.w3.org/2000/svg">
<g clip-path="url(#clip0_3_556)">
<path d="M15.9844 4.706C15.9469 3.85586 15.8095 3.27139 15.6125 2.76494C15.4093 2.22736 15.0968 1.74607 14.6873 1.34597C14.2872 0.939636 13.8027 0.623901 13.2714 0.423911C12.762 0.226973 12.1806 0.0894946 11.3304 0.0520117C10.4739 0.0113544 10.202 0.00195312 8.02975 0.00195312C5.85745 0.00195312 5.58555 0.0113544 4.73223 0.0488373C3.88209 0.0863202 3.29763 0.22392 2.79131 0.420736C2.2536 0.623901 1.77231 0.936462 1.37221 1.34597C0.96588 1.74607 0.650267 2.23054 0.450155 2.76189C0.253217 3.27139 0.11574 3.85268 0.0782567 4.70282C0.0375995 5.55931 0.0281982 5.83122 0.0281982 8.00352C0.0281982 10.1758 0.0375995 10.4477 0.0750823 11.301C0.112565 12.1512 0.250165 12.7356 0.447103 13.2421C0.650267 13.7797 0.96588 14.261 1.37221 14.6611C1.77231 15.0674 2.25678 15.3831 2.78813 15.5831C3.29763 15.7801 3.87892 15.9175 4.72918 15.955C5.58237 15.9926 5.8544 16.0019 8.02669 16.0019C10.199 16.0019 10.4709 15.9926 11.3242 15.955C12.1743 15.9175 12.7588 15.7801 13.2651 15.5831C14.3404 15.1674 15.1906 14.3172 15.6063 13.2421C15.8031 12.7326 15.9407 12.1512 15.9782 11.301C16.0157 10.4477 16.0251 10.1758 16.0251 8.00352C16.0251 5.83122 16.0219 5.55931 15.9844 4.706ZM14.5436 11.2385C14.5092 12.0199 14.3779 12.4419 14.2685 12.7232C13.9997 13.4202 13.4464 13.9734 12.7494 14.2423C12.4681 14.3517 12.0431 14.4829 11.2647 14.5172C10.4208 14.5548 10.1677 14.5641 8.03292 14.5641C5.89811 14.5641 5.64183 14.5548 4.80097 14.5172C4.01957 14.4829 3.59761 14.3517 3.31631 14.2423C2.96944 14.1141 2.65371 13.9109 2.39743 13.6452C2.13175 13.3858 1.92859 13.0732 1.80039 12.7264C1.691 12.4451 1.55974 12.0199 1.52544 11.2417C1.48783 10.3978 1.47855 10.1446 1.47855 8.00974C1.47855 5.87493 1.48783 5.61865 1.52544 4.77791C1.55974 3.99651 1.691 3.57455 1.80039 3.29325C1.92859 2.94625 2.13175 2.63064 2.40061 2.37424C2.65993 2.10857 2.97249 1.9054 3.31948 1.77732C3.60079 1.66793 4.02592 1.53668 4.80415 1.50225C5.64806 1.46476 5.90128 1.45536 8.03597 1.45536C10.174 1.45536 10.4271 1.46476 11.2679 1.50225C12.0493 1.53668 12.4713 1.66793 12.7526 1.77732C13.0995 1.9054 13.4152 2.10857 13.6715 2.37424C13.9371 2.63369 14.1403 2.94625 14.2685 3.29325C14.3779 3.57455 14.5092 3.99956 14.5436 4.77791C14.5811 5.62183 14.5905 5.87493 14.5905 8.00974C14.5905 10.1446 14.5811 10.3946 14.5436 11.2385Z" fill="#4079FF"/>
<path d="M8.02982 3.89368C5.7607 3.89368 3.91964 5.73461 3.91964 8.00385C3.91964 10.2731 5.7607 12.114 8.02982 12.114C10.2991 12.114 12.14 10.2731 12.14 8.00385C12.14 5.73461 10.2991 3.89368 8.02982 3.89368ZM8.02982 10.67C6.55773 10.67 5.36365 9.47607 5.36365 8.00385C5.36365 6.53164 6.55773 5.33768 8.02982 5.33768C9.50203 5.33768 10.696 6.53164 10.696 8.00385C10.696 9.47607 9.50203 10.67 8.02982 10.67Z" fill="#4079FF"/>
<path d="M13.2626 3.72993C13.2626 4.25982 12.8329 4.68947 12.3029 4.68947C11.773 4.68947 11.3433 4.25982 11.3433 3.72993C11.3433 3.19991 11.773 2.77039 12.3029 2.77039C12.8329 2.77039 13.2626 3.19991 13.2626 3.72993Z" fill="#4079FF"/>
</g>
<defs>
<clipPath id="clip0_3_556">
<rect width="16" height="16" fill="white" transform="translate(-3.05176e-05 0.00195312)"/>
</clipPath>
</defs>
</svg>
