<svg width="16" height="17" viewBox="0 0 16 17" fill="none" xmlns="http://www.w3.org/2000/svg">
<g clip-path="url(#clip0_3_550)">
<path d="M15.996 16.0017V16.001H16V10.133C16 7.26236 15.382 5.05103 12.026 5.05103C10.4126 5.05103 9.32998 5.93636 8.88798 6.77569H8.84132V5.31903H5.65932V16.001H8.97265V10.7117C8.97265 9.31903 9.23665 7.97236 10.9613 7.97236C12.6606 7.97236 12.686 9.5617 12.686 10.801V16.0017H15.996Z" fill="#4079FF"/>
<path d="M0.263798 5.31934H3.58113V16.0013H0.263798V5.31934Z" fill="#4079FF"/>
<path d="M1.92146 0.00195312C0.860789 0.00195312 0.00012207 0.86262 0.00012207 1.92329C0.00012207 2.98395 0.860789 3.86262 1.92146 3.86262C2.98212 3.86262 3.84279 2.98395 3.84279 1.92329C3.84212 0.86262 2.98146 0.00195313 1.92146 0.00195313V0.00195312Z" fill="#4079FF"/>
</g>
<defs>
<clipPath id="clip0_3_550">
<rect width="16" height="16" fill="white" transform="translate(0.00012207 0.00195312)"/>
</clipPath>
</defs>
</svg>
