<svg width="16" height="17" viewBox="0 0 16 17" fill="none" xmlns="http://www.w3.org/2000/svg">
<g clip-path="url(#clip0_3_545)">
<path d="M15.3765 3.34148C14.7989 2.65493 13.7326 2.37488 11.6962 2.37488H4.30392C2.22087 2.37488 1.13648 2.67299 0.561103 3.40394C0.00012207 4.11661 0.00012207 5.16667 0.00012207 6.61999V9.39C0.00012207 12.2055 0.665722 13.6351 4.30392 13.6351H11.6962C13.4622 13.6351 14.4408 13.3879 15.0739 12.7821C15.7231 12.1607 16.0001 11.1463 16.0001 9.39V6.61999C16.0001 5.08734 15.9567 4.03108 15.3765 3.34148ZM10.2722 8.38742L6.91537 10.1418C6.84033 10.181 6.75826 10.2005 6.6763 10.2005C6.5835 10.2005 6.49091 10.1755 6.4089 10.1258C6.25447 10.0323 6.16017 9.86489 6.16017 9.68435V6.18685C6.16017 6.00662 6.25421 5.83939 6.40833 5.74577C6.5625 5.65214 6.75424 5.64574 6.91419 5.72884L10.271 7.47191C10.4418 7.56058 10.549 7.73689 10.5493 7.92925C10.5495 8.12177 10.4427 8.29834 10.2722 8.38742Z" fill="#4079FF"/>
</g>
<defs>
<clipPath id="clip0_3_545">
<rect width="16" height="16" fill="white" transform="translate(0.00012207 0.00195312)"/>
</clipPath>
</defs>
</svg>
